<svg xmlns="http://www.w3.org/2000/svg" viewBox="0 0 106.16 155.9"><defs><style>.cls-1{fill:#f6991d;}.cls-2{fill:#d87e12;}</style></defs><title>transmarker_orange100</title><g id="Layer_2" data-name="Layer 2"><g id="objects"><path class="cls-1" d="M53.08,0A53.09,53.09,0,0,0,38,104l13.7,47.27L53,155.9l16.71-52.41A53.08,53.08,0,0,0,53.08,0Zm0,80c-.48,0-.95,0-1.42,0a27,27,0,0,1,0-53.83h0c.46,0,.93,0,1.39,0a27,27,0,1,1,0,53.9Zm0-40.09A13.15,13.15,0,1,0,66.22,53.08,13.14,13.14,0,0,0,53.08,39.94Z"/><path class="cls-2" d="M106.16,53.08a53.11,53.11,0,0,1-36.44,50.41L53,155.9l-1.35-4.66V80c.47,0,.94,0,1.42,0a26.95,26.95,0,1,0,0-53.9c-.47,0-.93,0-1.39,0h0V0c.47,0,.94,0,1.42,0A53.08,53.08,0,0,1,106.16,53.08Z"/><path class="cls-2" d="M53.08,19.63c-.48,0-.95,0-1.42,0a33.45,33.45,0,0,0,0,66.84c.47,0,.94,0,1.42,0a33.45,33.45,0,0,0,0-66.9Zm0,60.4c-.48,0-.95,0-1.42,0a27,27,0,0,1,0-53.83h0c.46,0,.93,0,1.39,0a27,27,0,1,1,0,53.9Z"/></g></g></svg>