<svg xmlns="http://www.w3.org/2000/svg" xmlns:xlink="http://www.w3.org/1999/xlink" viewBox="0 0 243.2 256.06">
    <defs>
        <linearGradient id="linear-gradient" x1="-17.14" y1="233.29" x2="200.2" y2="55.53"
                        gradientUnits="userSpaceOnUse">
            <stop offset="0" stop-color="#f79b1d"/>
            <stop offset="0.28" stop-color="#ec7422"/>
            <stop offset="0.59" stop-color="#e14d26"/>
            <stop offset="0.84" stop-color="#da3629"/>
            <stop offset="1" stop-color="#d82d2a"/>
        </linearGradient>
        <linearGradient id="linear-gradient-2" x1="-17.14" y1="233.29" x2="200.2" y2="55.53"
                        gradientUnits="userSpaceOnUse">
            <stop offset="0" stop-color="#f79b1d"/>
            <stop offset="0.28" stop-color="#ec7422"/>
            <stop offset="0.59" stop-color="#e14d26"/>
            <stop offset="0.84" stop-color="#da3629"/>
            <stop offset="1" stop-color="#d82d2a"/>
        </linearGradient>

    </defs>
    <title>Corner</title>
    <g id="Layer_1" data-name="Layer 1">
        <path d="M169.32,246.8a34.41,34.41,0,0,0,6.21-6.53c5-6.93,5.19-16.12.72-21.83-4.69-5.91-13.66-7.88-21.73-4.47a35.54,35.54,0,0,0-8,4.92c-1,.76-1.94,1.54-2.92,2.3-3.32,2.63-18.71,19.8-27.58,20.36-5.25.33-10.41-2.3-14-6.7a17.89,17.89,0,0,1,2.76-25.15c10.51-8.44,37.46-33.29,48-41.73,4.92-3.94,8.37-8.77,9.49-15,2.07-11.62-6.34-20.49-18.06-19.37-6.37.56-11.43,3.71-16.19,7.55L98.33,165A17.77,17.77,0,1,1,76.07,137.3q39.89-32,79.65-64.09L176,56.86c3.71-3,6.63-7.58,8.6-12a14.73,14.73,0,0,0-3-17.24c-4.89-5.06-11.06-6.24-17.5-4.27a38.58,38.58,0,0,0-8.41,3.78,26.31,26.31,0,0,0-3.35,2.3c-30.08,23.87-59.92,48-89.83,72a22.11,22.11,0,0,1-18.32,4.47c-10-1.77-15.17-13.23-10.21-23.18a30.54,30.54,0,0,1,7.62-9.72c16-13.23,32.37-26,48.49-39.14,6.63-5.42,10.41-12.35,8.8-21.21C97.58,5.18,92.46.59,85,.09,78.47-.4,72.46,1,67.21,5.28,52,17.59,26.89,37.69,10.47,50.85A6.45,6.45,0,0,1,0,45.8V256.06H167.12a7.45,7.45,0,0,1-.72-3.25A7.6,7.6,0,0,1,169.32,246.8ZM55.18,199.86c-8,9.19-17.27,17.47-28.83,22.13a16.63,16.63,0,0,1-18.81-3.87c-5.29-5.35-5.48-12-2.66-18.52a32.8,32.8,0,0,1,6.37-9.06c2.76-2.89,6.17-5.12,9.32-7.65l.1.07c3.38-2.69,6.57-5.65,10.14-8,8-5.32,18.75-4.6,24.43,1.28C61.12,182.29,61.84,192.21,55.18,199.86Z"
              style="fill:url(#linear-gradient)"/>
        <path d="M209.64,211.93c11.56-4.66,20.82-12.94,28.83-22.13,6.67-7.65,5.94-17.57.07-23.67-5.68-5.88-16.45-6.6-24.43-1.28-3.58,2.4-6.76,5.35-10.15,8l-.1-.07c-3.15,2.53-6.57,4.76-9.32,7.65a32.79,32.79,0,0,0-6.37,9.06c-2.82,6.53-2.63,13.17,2.66,18.52A16.63,16.63,0,0,0,209.64,211.93Z"
              style="fill:url(#linear-gradient-2)"/>
    </g>

</svg>
