<svg xmlns="http://www.w3.org/2000/svg" viewBox="0 0 604.48 604.48">
    <defs>
        <style>.cls-1{fill:#f8951d;}.cls-2{fill:url(#linear-gradient);}</style>
        <linearGradient id="linear-gradient" x1="61.53" y1="542.96" x2="568.16" y2="36.32"
                        gradientUnits="userSpaceOnUse">
            <stop offset="0" stop-color="#f79b1d"/>
            <stop offset="0.28" stop-color="#ec7422"/>
            <stop offset="0.59" stop-color="#e14d26"/>
            <stop offset="0.84" stop-color="#da3629"/>
            <stop offset="1" stop-color="#d82d2a"/>
        </linearGradient>
    </defs>
    <title>Logo</title>

    <g id="Layer_1" data-name="Layer 1">
        <path class="cls-1"
              d="M55.18,548.29c-8,9.19-17.27,17.46-28.83,22.13a16.63,16.63,0,0,1-18.81-3.88c-5.29-5.35-5.48-12-2.66-18.52A32.94,32.94,0,0,1,11.25,539c2.76-2.89,6.17-5.12,9.32-7.65l.1.07c3.38-2.69,6.57-5.65,10.15-8,8-5.31,18.75-4.59,24.43,1.28C61.12,530.72,61.84,540.64,55.18,548.29Z"/>
        <path class="cls-2"
              d="M603.6,74.69a12,12,0,0,0-.4-1.67,10.26,10.26,0,0,0-16.45-4.73s0,.07-.06.07Q558.42,92.29,530,116c-13,10.9-25.94,21.93-39.17,32.6-10.34,8.31-13.49,18.65-10.77,31.42,1.58,7.46,2.53,15.07,3.51,22.62,2,14.81-1.83,28.5-8.43,41.6-8.8,17.47-22.49,30.87-36.84,43.7q-38.46,34.43-76.8,69c-6.4,5.74-11.85,12-18.22,17.76-.95.85-12.71,13.76-22.26,13.76a13.79,13.79,0,0,1-6.73-1.71c-5.35-2.79-9-8.83-9-15.86,0-15.13,24.56-34.11,33.88-43.44,15.47-15.53,31.29-30.73,47.09-45.93,3.84-3.71,8.17-6.89,12.11-10.51a52.74,52.74,0,0,0,6.37-6.92c3.51-4.67,4.14-8.8,2.07-12.71a11.56,11.56,0,0,0-1.28-2c-4.5-5.75-8.57-6.89-15.5-3.84-11.1,4.86-20.22,12.71-28.7,21-18.51,18.28-36.54,37.06-55,55.48-5.71,5.68-12,10.77-18.06,16.16-.42.39-9.39,8.7-15,8.7a15.62,15.62,0,0,1-7.62-2c-5.61-3.11-9.42-9.55-9.42-17,0-4.57,1.12-10.15,5.22-14.25,19.5-19.47,39.63-38.29,59.3-57.59q17.43-17.15,34.41-34.77a30.87,30.87,0,0,0,5.45-8.14c1.9-4,2.16-7.65.91-10.77a11.84,11.84,0,0,0-4.26-5.29c-5.45-3.91-12.09-3.45-17.31,1.35-3.35,3.05-6.5,6.27-9.75,9.42q-33.19,32-66.32,63.93c-7.39,7.12-22.46,21.53-22.59,21.53a15.5,15.5,0,0,1-11.39,5.13,14.61,14.61,0,0,1-7.29-1.91c-5.55-3-9.36-9.36-9.36-16.68,0-6.2,4.24-13.13,8.74-17.83,11.26-11.78,22.95-23.18,34.34-34.83,26-26.69,51.87-53.58,78-80.11,13.23-13.4,28.53-23.48,47.81-25.84,13.62-1.68,27.08-.17,40.48,2.46,4.43.85,8.86,1.87,13.33,2.33a22.54,22.54,0,0,0,18.78-6.63c9-9,17.6-18.39,26.23-27.75Q504.92,65.93,528.64,40c1.15-1.28,2.59-2.86,4.2-4.63a21.19,21.19,0,0,0,2.27-25.67A20.26,20.26,0,0,0,517.74,0H87.17A87.19,87.19,0,0,0,0,87.17V394.22a6.45,6.45,0,0,0,10.47,5.06C26.89,386.11,52,366,67.21,353.71c5.25-4.24,11.26-5.68,17.76-5.19,7.49.49,12.61,5.09,14,12.51,1.6,8.86-2.17,15.79-8.8,21.21-16.12,13.1-32.48,25.9-48.5,39.14A30.56,30.56,0,0,0,34,431.09c-4.95,10,.2,21.41,10.22,23.18a22.08,22.08,0,0,0,18.32-4.46c29.91-24,59.75-48.1,89.83-72a26.11,26.11,0,0,1,3.35-2.3,38.32,38.32,0,0,1,8.4-3.77c6.44-2,12.61-.79,17.5,4.26a14.73,14.73,0,0,1,3,17.24c-2,4.43-4.89,9-8.6,12l-20.29,16.35Q116,453.76,76.07,485.73a17.77,17.77,0,0,0,22.26,27.71L128,489.6c4.76-3.84,9.82-7,16.19-7.55,11.72-1.12,20.13,7.75,18.06,19.37-1.12,6.21-4.57,11-9.49,15-10.51,8.44-37.46,33.3-48,41.73A17.89,17.89,0,0,0,102,583.27c3.55,4.4,8.7,7,14,6.7,8.86-.56,24.26-17.73,27.57-20.35,1-.76,1.94-1.55,2.93-2.3a35.51,35.51,0,0,1,8-4.93c8.08-3.41,17-1.44,21.74,4.47,4.46,5.71,4.3,14.9-.73,21.83a34.28,34.28,0,0,1-6.2,6.54,7.58,7.58,0,0,0-2.92,6,7.45,7.45,0,0,0,.72,3.25H517.31a87.17,87.17,0,0,0,87.17-87.17V87.17A87.2,87.2,0,0,0,603.6,74.69ZM238.46,538.23c-8,9.19-17.27,17.47-28.82,22.13a16.64,16.64,0,0,1-18.82-3.88c-5.28-5.35-5.48-12-2.66-18.51a33.05,33.05,0,0,1,6.37-9.07c2.76-2.89,6.18-5.12,9.33-7.65l.1.07c3.38-2.69,6.56-5.65,10.14-8,8-5.32,18.75-4.6,24.43,1.28C244.41,520.66,245.13,530.58,238.46,538.23Z"/>
    </g>

</svg>
